<svg width="128" height="128" viewBox="0 0 128 128" fill="none" xmlns="http://www.w3.org/2000/svg">
  <rect width="128" height="128" rx="28" fill="url(#bg)"/>
  <g filter="url(#shadow)">
    <path d="M32 78C32 60.327 46.327 46 64 46C81.673 46 96 60.327 96 78V80H32V78Z" fill="#FFC14A"/>
    <path d="M38 78C38 63.641 49.641 52 64 52C78.359 52 90 63.641 90 78" stroke="#FFE3A3" stroke-width="6" stroke-linecap="round"/>
    <rect x="29" y="80" width="70" height="12" rx="6" fill="#FF9A1A"/>
    <rect x="60" y="38" width="8" height="16" rx="4" fill="#FFE3A3"/>
    <rect x="84" y="34" width="10" height="48" rx="5" fill="#D8E6FF"/>
    <path d="M89 36L50 54" stroke="#D8E6FF" stroke-width="6" stroke-linecap="round"/>
    <path d="M50 54V88" stroke="#D8E6FF" stroke-width="6" stroke-linecap="round"/>
    <rect x="44" y="88" width="12" height="18" rx="4" fill="#D8E6FF"/>
  </g>
  <circle cx="98" cy="28" r="8" fill="#FFFFFF" fill-opacity="0.15"/>
  <defs>
    <linearGradient id="bg" x1="12" y1="10" x2="111" y2="118" gradientUnits="userSpaceOnUse">
      <stop stop-color="#0B1B33"/>
      <stop offset="1" stop-color="#5E3500"/>
    </linearGradient>
    <filter id="shadow" x="22" y="26" width="82" height="88" filterUnits="userSpaceOnUse" color-interpolation-filters="sRGB">
      <feFlood flood-opacity="0" result="BackgroundImageFix"/>
      <feColorMatrix in="SourceAlpha" type="matrix" values="0 0 0 0 0 0 0 0 0 0 0 0 0 0 0 0 0 0 127 0" result="hardAlpha"/>
      <feOffset dy="6"/>
      <feGaussianBlur stdDeviation="4"/>
      <feComposite in2="hardAlpha" operator="out"/>
      <feColorMatrix type="matrix" values="0 0 0 0 0.101961 0 0 0 0 0.0588235 0 0 0 0 0.00784314 0 0 0 0.35 0"/>
      <feBlend mode="normal" in2="BackgroundImageFix" result="effect1_dropShadow_1_1"/>
      <feBlend mode="normal" in="SourceGraphic" in2="effect1_dropShadow_1_1" result="shape"/>
    </filter>
  </defs>
</svg>
