<svg width="128" height="128" viewBox="0 0 128 128" fill="none" xmlns="http://www.w3.org/2000/svg">
  <rect width="128" height="128" rx="28" fill="url(#bg)"/>
  <g filter="url(#shadow)">
    <rect x="24" y="32" width="80" height="50" rx="12" fill="url(#screen)"/>
    <rect x="34" y="40" width="60" height="34" rx="8" fill="#08162D"/>
    <path d="M52 92H76" stroke="#D8F4FF" stroke-width="6" stroke-linecap="round"/>
    <path d="M46 98H82" stroke="#A5D8FF" stroke-width="6" stroke-linecap="round"/>
    <rect x="54" y="82" width="20" height="10" rx="5" fill="#CBEAFF"/>
    <rect x="48" y="47" width="32" height="20" rx="6" fill="#0D4FB3"/>
    <path d="M44 51H38" stroke="#87C9FF" stroke-width="4" stroke-linecap="round"/>
    <path d="M44 63H38" stroke="#87C9FF" stroke-width="4" stroke-linecap="round"/>
    <path d="M90 51H84" stroke="#87C9FF" stroke-width="4" stroke-linecap="round"/>
    <path d="M90 63H84" stroke="#87C9FF" stroke-width="4" stroke-linecap="round"/>
    <path d="M58 43V37" stroke="#87C9FF" stroke-width="4" stroke-linecap="round"/>
    <path d="M70 43V37" stroke="#87C9FF" stroke-width="4" stroke-linecap="round"/>
    <path d="M58 77V71" stroke="#87C9FF" stroke-width="4" stroke-linecap="round"/>
    <path d="M70 77V71" stroke="#87C9FF" stroke-width="4" stroke-linecap="round"/>
  </g>
  <circle cx="94" cy="30" r="8" fill="#FFFFFF" fill-opacity="0.18"/>
  <defs>
    <linearGradient id="bg" x1="12" y1="10" x2="113" y2="118" gradientUnits="userSpaceOnUse">
      <stop stop-color="#0D4FB3"/>
      <stop offset="1" stop-color="#071A36"/>
    </linearGradient>
    <linearGradient id="screen" x1="30" y1="34" x2="96" y2="82" gradientUnits="userSpaceOnUse">
      <stop stop-color="#E6F6FF"/>
      <stop offset="1" stop-color="#9BCFFF"/>
    </linearGradient>
    <filter id="shadow" x="18" y="26" width="92" height="80" filterUnits="userSpaceOnUse" color-interpolation-filters="sRGB">
      <feFlood flood-opacity="0" result="BackgroundImageFix"/>
      <feColorMatrix in="SourceAlpha" type="matrix" values="0 0 0 0 0 0 0 0 0 0 0 0 0 0 0 0 0 0 127 0" result="hardAlpha"/>
      <feOffset dy="6"/>
      <feGaussianBlur stdDeviation="4"/>
      <feComposite in2="hardAlpha" operator="out"/>
      <feColorMatrix type="matrix" values="0 0 0 0 0.0196078 0 0 0 0 0.113725 0 0 0 0 0.223529 0 0 0 0.34 0"/>
      <feBlend mode="normal" in2="BackgroundImageFix" result="effect1_dropShadow_1_1"/>
      <feBlend mode="normal" in="SourceGraphic" in2="effect1_dropShadow_1_1" result="shape"/>
    </filter>
  </defs>
</svg>
