<svg width="128" height="128" viewBox="0 0 128 128" fill="none" xmlns="http://www.w3.org/2000/svg">
  <rect width="128" height="128" rx="28" fill="url(#bg)"/>
  <g filter="url(#shadow)">
    <path d="M64 99C39 85.5 24 69.5 24 50C24 38.402 33.402 29 45 29C52.839 29 59.675 33.294 64 39.646C68.325 33.294 75.161 29 83 29C94.598 29 104 38.402 104 50C104 69.5 89 85.5 64 99Z" fill="url(#heart)"/>
    <rect x="56" y="45" width="16" height="30" rx="5" fill="#FFF5F5"/>
    <rect x="49" y="52" width="30" height="16" rx="5" fill="#FFF5F5"/>
    <path d="M40 87C46.5 79 52.5 75 64 75C75.5 75 81.5 79 88 87" stroke="#FFD5DC" stroke-width="6" stroke-linecap="round" opacity="0.85"/>
  </g>
  <circle cx="93" cy="34" r="10" fill="#FFFFFF" fill-opacity="0.18"/>
  <defs>
    <linearGradient id="bg" x1="15" y1="10" x2="110" y2="118" gradientUnits="userSpaceOnUse">
      <stop stop-color="#F97393"/>
      <stop offset="1" stop-color="#7A1230"/>
    </linearGradient>
    <linearGradient id="heart" x1="32" y1="30" x2="88" y2="92" gradientUnits="userSpaceOnUse">
      <stop stop-color="#FFE4EA"/>
      <stop offset="0.5" stop-color="#FF6B8A"/>
      <stop offset="1" stop-color="#C61E4D"/>
    </linearGradient>
    <filter id="shadow" x="16" y="23" width="96" height="84" filterUnits="userSpaceOnUse" color-interpolation-filters="sRGB">
      <feFlood flood-opacity="0" result="BackgroundImageFix"/>
      <feColorMatrix in="SourceAlpha" type="matrix" values="0 0 0 0 0 0 0 0 0 0 0 0 0 0 0 0 0 0 127 0" result="hardAlpha"/>
      <feOffset dy="6"/>
      <feGaussianBlur stdDeviation="4"/>
      <feComposite in2="hardAlpha" operator="out"/>
      <feColorMatrix type="matrix" values="0 0 0 0 0.290196 0 0 0 0 0.0392157 0 0 0 0 0.101961 0 0 0 0.35 0"/>
      <feBlend mode="normal" in2="BackgroundImageFix" result="effect1_dropShadow_1_1"/>
      <feBlend mode="normal" in="SourceGraphic" in2="effect1_dropShadow_1_1" result="shape"/>
    </filter>
  </defs>
</svg>
